<svg width="16" height="16" viewBox="0 0 16 16" fill="none" xmlns="http://www.w3.org/2000/svg">
<rect width="16" height="16" fill="black"/>
<path d="M10.9268 14.4775C10.8218 14.4775 10.7468 14.4575 10.7018 14.4175C10.6568 14.3825 10.6343 14.315 10.6343 14.215V9.475C10.7843 9.38 10.9543 9.3075 11.1443 9.2575C11.3343 9.2025 11.5293 9.175 11.7293 9.175C11.9793 9.175 12.1943 9.22 12.3743 9.31C12.5593 9.395 12.7018 9.5525 12.8018 9.7825C12.9018 10.0075 12.9518 10.325 12.9518 10.735C12.9518 11.135 12.9293 11.475 12.8843 11.755C12.8393 12.03 12.7793 12.255 12.7043 12.43C12.6293 12.605 12.5418 12.74 12.4418 12.835C12.3468 12.925 12.2468 12.9875 12.1418 13.0225C12.0418 13.0575 11.9393 13.075 11.8343 13.075C11.6993 13.075 11.5793 13.055 11.4743 13.015C11.3743 12.975 11.2968 12.925 11.2418 12.865V14.425C11.1918 14.44 11.1393 14.4525 11.0843 14.4625C11.0293 14.4725 10.9768 14.4775 10.9268 14.4775ZM11.6468 12.5275C11.7068 12.5275 11.7718 12.51 11.8418 12.475C11.9118 12.44 11.9793 12.365 12.0443 12.25C12.1143 12.135 12.1693 11.9625 12.2093 11.7325C12.2543 11.5025 12.2768 11.1925 12.2768 10.8025C12.2768 10.5025 12.2543 10.275 12.2093 10.12C12.1693 9.96 12.1068 9.8525 12.0218 9.7975C11.9368 9.7375 11.8293 9.7075 11.6993 9.7075C11.5293 9.7075 11.3768 9.755 11.2418 9.85V12.28C11.2968 12.37 11.3593 12.435 11.4293 12.475C11.4993 12.51 11.5718 12.5275 11.6468 12.5275Z" fill="white"/>
<path d="M7.16701 13.15C6.47701 13.15 5.97201 13.055 5.65201 12.865C5.34201 12.665 5.18701 12.46 5.18701 12.25C5.18701 12.13 5.21201 11.99 5.26201 11.83C5.31201 11.66 5.39201 11.51 5.50201 11.38C5.66201 11.53 5.86701 11.655 6.11701 11.755C6.37701 11.855 6.68701 11.905 7.04701 11.905C7.57701 11.905 7.95201 11.765 8.17201 11.485C8.40201 11.205 8.51701 10.835 8.51701 10.375C8.51701 10.035 8.45201 9.72 8.32201 9.43C8.20201 9.14 7.97701 8.805 7.64701 8.425L6.14701 6.67C5.80701 6.25 5.56201 5.875 5.41201 5.545C5.27201 5.205 5.20201 4.855 5.20201 4.495C5.20201 3.865 5.42201 3.35 5.86201 2.95C6.31201 2.55 6.95201 2.35 7.78201 2.35C8.49201 2.35 8.99701 2.425 9.29701 2.575C9.59701 2.715 9.74701 2.89 9.74701 3.1C9.74701 3.2 9.72201 3.315 9.67201 3.445C9.62201 3.565 9.54701 3.68 9.44701 3.79C9.34701 3.72 9.16201 3.645 8.89201 3.565C8.63201 3.475 8.32701 3.43 7.97701 3.43C7.52701 3.43 7.16701 3.52 6.89701 3.7C6.63701 3.88 6.50701 4.135 6.50701 4.465C6.50701 4.735 6.56701 4.985 6.68701 5.215C6.81701 5.435 6.99201 5.68 7.21201 5.95L8.83201 7.795C9.22201 8.255 9.48701 8.675 9.62701 9.055C9.76701 9.435 9.83701 9.86 9.83701 10.33C9.83701 10.83 9.75201 11.295 9.58201 11.725C9.42201 12.155 9.14701 12.5 8.75701 12.76C8.37701 13.02 7.84701 13.15 7.16701 13.15Z" fill="#DB3138"/>
</svg>
